# xmcd
#
# Track frame offsets:
#	150
#	36830
#	53923
#	77963
#	106285
#	139133
#	160173
#	184245
#	248055
#
# Disc length: 3783 seconds
#
# Revision: 1
# Processed by: cddbd v1.5.2PL0 Copyright (c) Steve Scherf et al.
# Submitted via: EZCDAudioConverter 2.1.7.1
#
DISCID=760ec509
DTITLE=Paul Butterfield's Better Days - Live At Winterland Ballroom
DYEAR=1973
DGENRE=Blues
TTITLE0=Countryside
TTITLE1=Buried Alive In The Blues
TTITLE2=Small Town Talk
TTITLE3=New Walkin' Blues
TTITLE4=Broke My Baby's Heart
TTITLE5=Highway 28
TTITLE6=Please Send Me Somebody To Love
TTITLE7=He's Got All The Whiskey
TTITLE8=Nobody's Fault But Mine
EXTD=
EXTT0=
EXTT1=
EXTT2=
EXTT3=
EXTT4=
EXTT5=
EXTT6=
EXTT7=
EXTT8=
PLAYORDER=
